<?xml version="1.0" encoding="utf-8"?>
<!-- Generator: Adobe Illustrator 23.0.6, SVG Export Plug-In . SVG Version: 6.00 Build 0)  -->
<svg version="1.1" xmlns="http://www.w3.org/2000/svg" xmlns:xlink="http://www.w3.org/1999/xlink" x="0px" y="0px"
	 viewBox="0 0 185.1 171.1" style="enable-background:new 0 0 185.1 171.1;" xml:space="preserve">
<style type="text/css">
	.st0{fill:#ADBD30;}
	.st1{fill:#FFFFFF;}
	.st2{opacity:0.6;}
	.st3{fill:#E6E6E6;}
	.st4{fill:none;stroke:#ADBD30;stroke-width:6;stroke-miterlimit:10;}
	.st5{fill:none;stroke:#E6E6E6;stroke-miterlimit:10;}
	.st6{fill:#FFFFFF;stroke:#999999;stroke-miterlimit:10;}
	.st7{fill:#999999;}
	.st8{fill:none;stroke:#000000;stroke-width:0.6;stroke-miterlimit:10;}
	.st9{fill:none;stroke:#FF0000;stroke-width:2;stroke-miterlimit:10;}
</style>
<g id="baselayer">
</g>
<g id="conteudo">
	<g>
		<g>
			<g>
				<path class="st3" d="M162.2,3.5l-39.7,79.1l-0.7,1.4h1.6h14.1l43.2,83.5h-53.7l-26.4-56.4l-0.9-1.9l-0.9,1.9L72,167.6H19.5
					l43.5-84l0.1-0.2l0-0.2l0.1-1.1H62H43.8L4.4,3.5h53.7l25,61l0.9,2.3l0.9-2.3l24.7-61H162.2 M163.9,2.5h-55L84,64.2L58.7,2.5h-56
					l40.4,80.5H62l0,0l-44.2,85.5h54.8l27-57l26.7,57h56l-44.2-85.5h-14.7L163.9,2.5L163.9,2.5z"/>
			</g>
		</g>
	</g>
</g>
</svg>
