<?xml version="1.0" encoding="utf-8"?>
<!-- Generator: Adobe Illustrator 23.0.6, SVG Export Plug-In . SVG Version: 6.00 Build 0)  -->
<svg version="1.1" xmlns="http://www.w3.org/2000/svg" xmlns:xlink="http://www.w3.org/1999/xlink" x="0px" y="0px"
	 viewBox="0 0 19.2 19.2" style="enable-background:new 0 0 19.2 19.2;" xml:space="preserve">
<style type="text/css">
	.st0{fill:#ADBD30;}
	.st1{fill:#FFFFFF;}
	.st2{opacity:0.6;}
	.st3{fill:#E6E6E6;}
	.st4{fill:none;stroke:#ADBD30;stroke-width:6;stroke-miterlimit:10;}
	.st5{fill:none;stroke:#E6E6E6;stroke-miterlimit:10;}
	.st6{fill:#FFFFFF;stroke:#999999;stroke-miterlimit:10;}
	.st7{fill:#999999;}
	.st8{fill:none;stroke:#000000;stroke-width:0.6;stroke-miterlimit:10;}
	.st9{fill:none;stroke:#FF0000;stroke-width:2;stroke-miterlimit:10;}
</style>
<g id="baselayer">
</g>
<g id="conteudo">
	<g>
		<g class="st2">
			
				<image style="overflow:visible;" width="1596" height="155" xlink:href="F0CBE6374E9CD2D0.png"  transform="matrix(1 0 0 1 -297.9182 6.7536)">
			</image>
		</g>
	</g>
	<g id="qePXUR_8_">
		<g>
			<g>
				<path class="st0" d="M2.8,16.5c3.7,0,7.4,0,11.2,0c0-1.8,0-3.7,0-5.6c0.8,0,1.6,0,2.5,0c0,2.7,0,5.4,0,8c-5.4,0-10.7,0-16.1,0
					c0-5.4,0-10.7,0-16.1c2.7,0,5.4,0,8,0c0,0.8,0,1.6,0,2.4c-1.9,0-3.7,0-5.6,0C2.8,9,2.8,12.7,2.8,16.5z"/>
				<path class="st0" d="M10.9,2.7c0-0.9,0-1.7,0-2.5c2.7,0,5.3,0,8,0c0,2.7,0,5.3,0,8c-0.8,0-1.6,0-2.4,0c0-1.2,0-2.5,0-3.7
					c-2.2,2.2-4.4,4.4-6.7,6.6C9.2,10.6,8.6,10,8.1,9.4c2.2-2.2,4.4-4.4,6.7-6.7C13.4,2.7,12.2,2.7,10.9,2.7z"/>
			</g>
		</g>
	</g>
</g>
</svg>
