<?xml version="1.0" encoding="utf-8"?>
<!-- Generator: Adobe Illustrator 23.0.6, SVG Export Plug-In . SVG Version: 6.00 Build 0)  -->
<svg version="1.1" xmlns="http://www.w3.org/2000/svg" xmlns:xlink="http://www.w3.org/1999/xlink" x="0px" y="0px"
	 viewBox="0 0 184.5 18.4" style="enable-background:new 0 0 184.5 18.4;" xml:space="preserve">
<style type="text/css">
	.st0{fill:#ADBD30;}
	.st1{fill:#FFFFFF;}
	.st2{opacity:0.6;}
	.st3{fill:#E6E6E6;}
	.st4{fill:none;stroke:#ADBD30;stroke-width:6;stroke-miterlimit:10;}
	.st5{fill:none;stroke:#E6E6E6;stroke-miterlimit:10;}
	.st6{fill:#FFFFFF;stroke:#999999;stroke-miterlimit:10;}
	.st7{fill:#999999;}
	.st8{fill:none;stroke:#000000;stroke-width:0.6;stroke-miterlimit:10;}
	.st9{fill:none;stroke:#FF0000;stroke-width:2;stroke-miterlimit:10;}
</style>
<g id="baselayer">
</g>
<g id="conteudo">
	<g>
		<g>
			<path class="st0" d="M29.6,13.8c-1.9,0-2.8-1.4-2.9-4.9H25c0.1-3,0.9-4.4,2.8-4.4c1.8,0,2.7,1.3,2.9,4.4h1.8v0h-0.1v0
				C32.4,12.3,31.6,13.8,29.6,13.8 M36,9c-0.1-5.8-2.7-8.7-8.2-8.7c-5.2,0-8,2.8-8.2,8.7h2v0h-0.2c0,0,0,0,0,0
				c0,6.1,2.6,9.2,8.2,9.2c5.3,0,8.2-2.9,8.2-9.2H36z M42.9,4.9h2.4c1.2,0,1.9,0.5,1.9,1.7c0,1.2-0.8,1.8-2.1,1.8h-2.3V4.9z
				 M52.4,13.2c-0.4-0.7-0.9-1.6-1.4-2.2c0.9-0.5,1.7-1.2,2.3-2h-1.4c0.3-0.7,0.5-1.6,0.5-2.6c0-3.8-2.5-5.7-6.1-5.7h-8.4V9h1.7v8.8
				h5v-5.8l1.7,0l3,5.9h5.5L52.4,13.2z M67.4,5.1V0.7H53.7v4.4H58V9h1.7v8.8h5V9H63V5.1H67.4z M75.8,13.3v-2.5h6.5V9h-1.7V7.5h-6.5
				V5.1h7.3V0.7H69.1V9h1.7v8.8h12.3v-4.4H75.8z M96.5,9H95l4.2-8.3h-5.7L90.9,7l-2.6-6.3h-5.8L86.7,9h1.9l0,0l-4.5,8.8h5.6l2.8-5.9
				l2.7,5.9h5.8L96.5,9z M19.5,0.7h-5.4L12.2,9h1.6l-0.9,4.8l0,0L12,9h-1.9L8.3,0.7H2.7L5.1,9H7l2.5,8.8h6.7L18.7,9h-1.6L19.5,0.7z
				 M132,13.3v-2.5h6.5V9h-1.7V7.5h-6.5V5.1h7.3V0.7h-12.3V9h1.7v8.8h12.3v-4.4H132z M147.4,13.5h-0.9V9h-1.7v-4h1
				c1.1,0,1.9,0.3,2.5,0.8c0.7,0.7,1,1.8,1,3.3h1.7c0,1.9-0.3,3.1-1.2,3.9C149.3,13.3,148.5,13.5,147.4,13.5 M154.6,9
				c-0.1-3.1-1.1-5.3-2.6-6.6c-1.6-1.3-3.8-1.7-6.3-1.7h-5.9V9h1.7v8.8h5.8c2.8,0,4.9-0.6,6.4-1.8c1.6-1.4,2.6-3.7,2.7-7H154.6z
				 M161.4,9V0.7h-5V9h1.7v8.8h5V9H161.4z M171.5,11.1l0.5-2.2h-1.6c0,0,0.4-1.9,0.9-4.4h0.1c0.3,1.5,0.8,4.4,0.8,4.4h1.8l0.5,2.2
				H171.5z M179.2,9h-1.9l-2.5-8.3H168L165.5,9h1.5l-2.6,8.8h5.4l0.6-2.3h5.2l0.6,2.3h5.5L179.2,9z M122.8,9V0.7h-6.2L113.7,9h-0.4
				l-2.9-8.3H104V9h1.7V9v8.7h5c0,0,0-0.2,0-0.7V9h0.2c0.2,0.8,2.5,6.7,2.5,6.7h3.5c0,0,2.2-5.8,2.5-6.7h0.2v8.7h5V9L122.8,9z"/>
		</g>
	</g>
</g>
</svg>
